<?xml version="1.0" standalone="no"?><!DOCTYPE svg PUBLIC "-//W3C//DTD SVG 1.1//EN" "http://www.w3.org/Graphics/SVG/1.1/DTD/svg11.dtd"><svg t="1773729139560" class="icon" viewBox="0 0 1024 1024" version="1.1" xmlns="http://www.w3.org/2000/svg" p-id="4232" xmlns:xlink="http://www.w3.org/1999/xlink" width="200" height="200"><path d="M942.420155 296.790242c14.378649-9.557321 33.493291-4.778661 43.09328 9.599988 9.557321 14.335982 4.778661 33.493291-19.15731 43.050613l-181.759772 124.373178c-14.378649 9.599988-33.535958 4.778661-43.09328-9.557321-4.778661-4.778661-4.778661-9.557321-4.778661-19.15731l-71.765243-86.101225a36.522621 36.522621 0 0 1-23.893304 9.557321h-57.429261c-23.893303 0-43.093279-19.114643-43.09328-43.050613v9.599988H334.932915c9.514655-19.157309 14.293315-47.87194 14.293315-76.586571 0-28.671964-4.778661-57.386595-14.335982-76.543904h205.73841v9.599988c0-23.93597 19.114643-43.093279 43.050612-43.09328h57.386595L736.724412 33.707905c0-4.821327 0-14.378649 4.778661-19.199976 9.557321-14.293315 28.714631-19.114643 43.09328-9.514655l186.538433 124.373178c14.378649 9.557321 19.157309 28.714631 9.557321 43.093279-9.557321 14.335982-28.671964 19.114643-43.050612 9.514655L784.553686 76.801184l-95.658547 114.77319v86.143892L789.332347 397.270117l153.087808-100.479875zM287.060975 258.560957c0 81.322565-62.207922 143.530487-143.530488 143.530487C66.986583 402.091444 0 335.104861 0 258.560957c0-81.322565 62.207922-143.530487 143.530487-143.530487 76.543904 0 143.530487 62.207922 143.530488 143.530487z m-47.871941 0a95.99988 95.99988 0 0 0-95.658547-95.701214A95.99988 95.99988 0 0 0 47.786607 258.560957a95.99988 95.99988 0 0 0 95.701214 95.658547A95.99988 95.99988 0 0 0 239.189034 258.560957zM143.487821 306.347564c-28.714631 0-47.829274-23.893303-47.829274-47.786607 0-28.714631 23.893303-47.87194 47.829274-47.87194 28.714631 0 47.829274 23.893303 47.829273 47.829273 0 28.714631-19.114643 47.87194-47.829273 47.87194z m143.530487 90.922553l105.514535 185.173102V1024H119.551851a63.317254 63.317254 0 0 1-62.165256-62.207922v-62.165256c0-33.493291 28.671964-62.207922 62.165256-62.207922h162.687796L28.671964 411.606099q43.050613 38.314619 81.322565 47.87194c38.271952 9.557321 105.258535 14.335982 177.023779-62.207922zM860.158925 559.787247a81.919898 81.919898 0 1 1 163.839795 0q0 71.253244-81.919898 163.839795-81.919898-92.586551-81.919897-163.839795z m40.959949 0a40.959949 40.959949 0 1 0 81.919897 0 40.959949 40.959949 0 0 0-81.919897 0zM477.866069 750.933675a136.533163 136.533163 0 0 1 273.066326 0q0 118.783852-136.533163 273.066325-136.533163-154.282474-136.533163-273.066325z m68.266582 0a68.266581 68.266581 0 1 0 136.533162 0 68.266581 68.266581 0 0 0-136.533162 0z m330.666253 0.853332l-18.261311-20.223975a119.893183 119.893183 0 0 1 54.613266-27.861298l5.973325 27.306632a92.842551 92.842551 0 0 0-42.32528 20.735974z m-49.151939 56.746596a109.22653 109.22653 0 0 1 7.125325-43.391946c1.151999-2.730663 2.559997-5.375993 4.095995-7.93599l24.021303 13.09865c-1.109332 2.047997-2.133331 4.138661-2.986663 6.314659a84.906561 84.906561 0 0 0-4.949327 32.767959v7.082658h-27.306633v-7.93599z m3.28533 69.119913c0-11.221319-1.621331-22.399972-1.621332-33.322625l27.306633-1.919997c1.621331 11.477319 1.621331 23.466637 1.621331 35.242622 0.384 7.167991 0.384 14.378649 0 21.54664l-27.306632-2.730663v-18.815977z m-33.023959 79.189235l3.541329-2.730664c10.96532-8.959989 19.199976-20.778641 23.765303-34.13329l25.941301 8.959988c-6.271992 17.962644-17.322645 33.834624-31.957293 45.909276l-4.906661 3.839996-16.383979-21.845306z m-64.426586 55.42393l-6.015993-27.306632a259.967675 259.967675 0 0 0 49.407939-15.573314l11.178652 25.130635c-17.535978 7.722657-35.839955 13.653316-54.613265 17.749311zM650.665853 1024l-2.431997-27.306633c18.815976-1.621331 36.863954-3.839995 52.394602-6.826658l4.693327 27.306633c-16.426646 2.730663-34.986623 5.205327-54.613265 6.826658z" p-id="4233"></path></svg>